<?xml version="1.0" encoding="UTF-8" standalone="no"?><svg xmlns="http://www.w3.org/2000/svg" xmlns:xlink="http://www.w3.org/1999/xlink" contentScriptType="application/ecmascript" contentStyleType="text/css" height="445px" preserveAspectRatio="none" style="width:1320px;height:445px;" version="1.1" viewBox="0 0 1320 445" width="1320px" zoomAndPan="magnify"><defs><filter height="300%" id="f15g7o3pb47ais" width="300%" x="-1" y="-1"><feGaussianBlur result="blurOut" stdDeviation="2.0"/><feColorMatrix in="blurOut" result="blurOut2" type="matrix" values="0 0 0 0 0 0 0 0 0 0 0 0 0 0 0 0 0 0 .4 0"/><feOffset dx="4.0" dy="4.0" in="blurOut2" result="blurOut3"/><feBlend in="SourceGraphic" in2="blurOut3" mode="normal"/></filter></defs><g><!--MD5=[fee662a292a0353a69bd162820bae93b]
entity User--><ellipse cx="22" cy="14" fill="#FEFECE" filter="url(#f15g7o3pb47ais)" rx="8" ry="8" style="stroke:#A80036;stroke-width:1.5;"/><path d="M22,22 L22,49 M9,30 L35,30 M22,49 L9,64 M22,49 L35,64 " fill="none" filter="url(#f15g7o3pb47ais)" style="stroke:#A80036;stroke-width:1.5;"/><text fill="#000000" font-family="sans-serif" font-size="14" lengthAdjust="spacingAndGlyphs" textLength="32" x="6" y="82.4951">User</text><!--MD5=[97ab183161fd5d1db7fba7485cf76add]
entity Admin--><ellipse cx="1067" cy="369" fill="#FEFECE" filter="url(#f15g7o3pb47ais)" rx="8" ry="8" style="stroke:#A80036;stroke-width:1.5;"/><path d="M1067,377 L1067,404 M1054,385 L1080,385 M1067,404 L1054,419 M1067,404 L1080,419 " fill="none" filter="url(#f15g7o3pb47ais)" style="stroke:#A80036;stroke-width:1.5;"/><text fill="#000000" font-family="sans-serif" font-size="14" lengthAdjust="spacingAndGlyphs" textLength="43" x="1045.5" y="437.4951">Admin</text><!--MD5=[9d2073d6101df60eb963db43bcdfbbb7]
entity PostgresMovieData--><path d="M518,387.5 C518,377.5 595,377.5 595,377.5 C595,377.5 672,377.5 672,387.5 L672,412.7969 C672,422.7969 595,422.7969 595,422.7969 C595,422.7969 518,422.7969 518,412.7969 L518,387.5 " fill="#FEFECE" filter="url(#f15g7o3pb47ais)" style="stroke:#000000;stroke-width:1.5;"/><path d="M518,387.5 C518,397.5 595,397.5 595,397.5 C595,397.5 672,397.5 672,387.5 " fill="none" style="stroke:#000000;stroke-width:1.5;"/><text fill="#000000" font-family="sans-serif" font-size="14" lengthAdjust="spacingAndGlyphs" textLength="134" x="528" y="414.4951">PostgresMovieData</text><!--MD5=[57696ccbf9aff1101ec97a72e7e1fdbc]
entity PostgresAuthData--><path d="M1167,32.5 C1167,22.5 1240,22.5 1240,22.5 C1240,22.5 1313,22.5 1313,32.5 L1313,57.7969 C1313,67.7969 1240,67.7969 1240,67.7969 C1240,67.7969 1167,67.7969 1167,57.7969 L1167,32.5 " fill="#FEFECE" filter="url(#f15g7o3pb47ais)" style="stroke:#000000;stroke-width:1.5;"/><path d="M1167,32.5 C1167,42.5 1240,42.5 1240,42.5 C1240,42.5 1313,42.5 1313,32.5 " fill="none" style="stroke:#000000;stroke-width:1.5;"/><text fill="#000000" font-family="sans-serif" font-size="14" lengthAdjust="spacingAndGlyphs" textLength="126" x="1177" y="59.4951">PostgresAuthData</text><!--MD5=[b09dc49634ea5d27a4d74e8ef6195a9c]
entity ElasticSearch--><path d="M539,156.5 C539,146.5 595,146.5 595,146.5 C595,146.5 651,146.5 651,156.5 L651,181.7969 C651,191.7969 595,191.7969 595,191.7969 C595,191.7969 539,191.7969 539,181.7969 L539,156.5 " fill="#FEFECE" filter="url(#f15g7o3pb47ais)" style="stroke:#000000;stroke-width:1.5;"/><path d="M539,156.5 C539,166.5 595,166.5 595,166.5 C595,166.5 651,166.5 651,156.5 " fill="none" style="stroke:#000000;stroke-width:1.5;"/><text fill="#000000" font-family="sans-serif" font-size="14" lengthAdjust="spacingAndGlyphs" textLength="92" x="549" y="183.4951">ElasticSearch</text><!--MD5=[582f863ae723e21f6009af83c171f753]
entity AdminPanel--><rect fill="#FEFECE" filter="url(#f15g7o3pb47ais)" height="46.2969" style="stroke:#A80036;stroke-width:1.5;" width="121" x="712.5" y="377"/><rect fill="#FEFECE" height="10" style="stroke:#A80036;stroke-width:1.5;" width="15" x="813.5" y="382"/><rect fill="#FEFECE" height="2" style="stroke:#A80036;stroke-width:1.5;" width="4" x="811.5" y="384"/><rect fill="#FEFECE" height="2" style="stroke:#A80036;stroke-width:1.5;" width="4" x="811.5" y="388"/><text fill="#000000" font-family="sans-serif" font-size="14" lengthAdjust="spacingAndGlyphs" textLength="81" x="727.5" y="409.9951">AdminPanel</text><!--MD5=[8589d6d645b4585e5303654ac898cd76]
entity LoadBalancer--><rect fill="#FEFECE" filter="url(#f15g7o3pb47ais)" height="46.2969" style="stroke:#A80036;stroke-width:1.5;" width="133" x="286.5" y="22"/><rect fill="#FEFECE" height="10" style="stroke:#A80036;stroke-width:1.5;" width="15" x="399.5" y="27"/><rect fill="#FEFECE" height="2" style="stroke:#A80036;stroke-width:1.5;" width="4" x="397.5" y="29"/><rect fill="#FEFECE" height="2" style="stroke:#A80036;stroke-width:1.5;" width="4" x="397.5" y="33"/><text fill="#000000" font-family="sans-serif" font-size="14" lengthAdjust="spacingAndGlyphs" textLength="93" x="301.5" y="54.9951">LoadBalancer</text><!--MD5=[645d8587175d8f7ad110cd370775931d]
entity API--><rect fill="#FEFECE" filter="url(#f15g7o3pb47ais)" height="46.2969" style="stroke:#A80036;stroke-width:1.5;" width="61" x="564.5" y="22"/><rect fill="#FEFECE" height="10" style="stroke:#A80036;stroke-width:1.5;" width="15" x="605.5" y="27"/><rect fill="#FEFECE" height="2" style="stroke:#A80036;stroke-width:1.5;" width="4" x="603.5" y="29"/><rect fill="#FEFECE" height="2" style="stroke:#A80036;stroke-width:1.5;" width="4" x="603.5" y="33"/><text fill="#000000" font-family="sans-serif" font-size="14" lengthAdjust="spacingAndGlyphs" textLength="21" x="579.5" y="54.9951">API</text><!--MD5=[39222abbbfd087a4fdab60e627dc976f]
entity Auth--><rect fill="#FEFECE" filter="url(#f15g7o3pb47ais)" height="46.2969" style="stroke:#A80036;stroke-width:1.5;" width="72" x="1055" y="22"/><rect fill="#FEFECE" height="10" style="stroke:#A80036;stroke-width:1.5;" width="15" x="1107" y="27"/><rect fill="#FEFECE" height="2" style="stroke:#A80036;stroke-width:1.5;" width="4" x="1105" y="29"/><rect fill="#FEFECE" height="2" style="stroke:#A80036;stroke-width:1.5;" width="4" x="1105" y="33"/><text fill="#000000" font-family="sans-serif" font-size="14" lengthAdjust="spacingAndGlyphs" textLength="32" x="1070" y="54.9951">Auth</text><!--MD5=[c30c8e8d1d0ac977251bea0a17dddab8]
entity ETL--><rect fill="#FEFECE" filter="url(#f15g7o3pb47ais)" height="46.2969" style="stroke:#A80036;stroke-width:1.5;" width="65" x="562.5" y="252.5"/><rect fill="#FEFECE" height="10" style="stroke:#A80036;stroke-width:1.5;" width="15" x="607.5" y="257.5"/><rect fill="#FEFECE" height="2" style="stroke:#A80036;stroke-width:1.5;" width="4" x="605.5" y="259.5"/><rect fill="#FEFECE" height="2" style="stroke:#A80036;stroke-width:1.5;" width="4" x="605.5" y="263.5"/><text fill="#000000" font-family="sans-serif" font-size="14" lengthAdjust="spacingAndGlyphs" textLength="25" x="577.5" y="285.4951">ETL</text><!--MD5=[ded2605f68e6c340f2c9007dd3b98953]
link User to LoadBalancer--><path d="M38.4143,45 C82.005,45 202.6991,45 281.2835,45 " fill="none" id="User-to-LoadBalancer" style="stroke:#A80036;stroke-width:1.0;"/><polygon fill="#A80036" points="286.3975,45,277.3975,41,281.3975,45,277.3975,49,286.3975,45" style="stroke:#A80036;stroke-width:1.0;"/><text fill="#000000" font-family="sans-serif" font-size="13" lengthAdjust="spacingAndGlyphs" textLength="207" x="58.75" y="38.0669">Запрос на просмотр контента</text><!--MD5=[02dfda8818d014e9d183fd83c983d63f]
link LoadBalancer to API--><path d="M419.7682,45 C464.8389,45 522.5671,45 559.1805,45 " fill="none" id="LoadBalancer-to-API" style="stroke:#A80036;stroke-width:1.0;"/><polygon fill="#A80036" points="564.4253,45,555.4253,41,559.4253,45,555.4253,49,564.4253,45" style="stroke:#A80036;stroke-width:1.0;"/><text fill="#000000" font-family="sans-serif" font-size="13" lengthAdjust="spacingAndGlyphs" textLength="103" x="440.5" y="38.0669">Запрос данных</text><!--MD5=[35b34b4d27a4d3597af9f2ffda93764a]
link API to Auth--><path d="M625.6527,45 C711.2451,45 952.873,45 1049.9101,45 " fill="none" id="API-to-Auth" style="stroke:#A80036;stroke-width:1.0;"/><polygon fill="#A80036" points="1054.9782,45,1045.9782,41,1049.9782,45,1045.9782,49,1054.9782,45" style="stroke:#A80036;stroke-width:1.0;"/><text fill="#000000" font-family="sans-serif" font-size="13" lengthAdjust="spacingAndGlyphs" textLength="388" x="646.25" y="38.0669">Запрос на аутентификацию/авторизацию пользователя</text><!--MD5=[441578907d10dbe9715c907943c6fd97]
link API to ElasticSearch--><path d="M595,68.0328 C595,88.6522 595,118.9413 595,140.9628 " fill="none" id="API-to-ElasticSearch" style="stroke:#A80036;stroke-width:1.0;"/><polygon fill="#A80036" points="595,146.0905,599,137.0905,595,141.0905,591,137.0905,595,146.0905" style="stroke:#A80036;stroke-width:1.0;"/><!--MD5=[447066ad930b4bf3391389ee3a8d173f]
link Auth to PostgresAuthData--><path d="M1127.0859,45 C1138.5607,45 1150.0354,45 1161.5101,45 " fill="none" id="Auth-to-PostgresAuthData" style="stroke:#A80036;stroke-width:1.0;"/><polygon fill="#A80036" points="1166.7823,45,1157.7823,41,1161.7823,45,1157.7823,49,1166.7823,45" style="stroke:#A80036;stroke-width:1.0;"/><!--MD5=[d79fd8e1f425b73722a6e5bc556761ce]
reverse link ETL to PostgresMovieData--><path d="M582.1888,303.8162 C578.9856,326.1073 579.2982,356.7584 583.1265,377.4179 " fill="none" id="ETL-backto-PostgresMovieData" style="stroke:#A80036;stroke-width:1.0;"/><polygon fill="#A80036" points="583.027,298.6257,577.6433,306.8729,582.2298,303.5617,585.541,308.1483,583.027,298.6257" style="stroke:#A80036;stroke-width:1.0;"/><!--MD5=[fa67b3aa7afeccb297811c414d1a7c46]
link ETL to PostgresMovieData--><path d="M606.973,298.6257 C610.7399,319.4584 610.991,350.1224 607.7265,372.266 " fill="none" id="ETL-to-PostgresMovieData" style="stroke:#A80036;stroke-width:1.0;"/><polygon fill="#A80036" points="606.8735,377.4179,612.2899,369.1921,607.6902,372.4851,604.3973,367.8854,606.8735,377.4179" style="stroke:#A80036;stroke-width:1.0;"/><!--MD5=[fa2cc15475151b52b3c12e355f2525ca]
reverse link ElasticSearch to ETL--><path d="M595,196.7725 C595,214.003 595,235.8898 595,252.2104 " fill="none" id="ElasticSearch-backto-ETL" style="stroke:#A80036;stroke-width:1.0;"/><polygon fill="#A80036" points="595,191.5859,591,200.5859,595,196.5859,599,200.5859,595,191.5859" style="stroke:#A80036;stroke-width:1.0;"/><!--MD5=[427cd29b5a76d0a797ca10b8150b6f73]
reverse link AdminPanel to Admin--><path d="M838.6477,400 C904.5877,400 1002.406,400 1045.4001,400 " fill="none" id="AdminPanel-backto-Admin" style="stroke:#A80036;stroke-width:1.0;"/><polygon fill="#A80036" points="833.5605,400,842.5605,404,838.5605,400,842.5605,396,833.5605,400" style="stroke:#A80036;stroke-width:1.0;"/><text fill="#000000" font-family="sans-serif" font-size="13" lengthAdjust="spacingAndGlyphs" textLength="170" x="854.5" y="393.0669">Редактирование данных</text><!--MD5=[1cc5e5282c9624d77ae5998d1be080f1]
reverse link PostgresMovieData to AdminPanel--><path d="M677.201,400 C688.9174,400 700.6339,400 712.3503,400 " fill="none" id="PostgresMovieData-backto-AdminPanel" style="stroke:#A80036;stroke-width:1.0;"/><polygon fill="#A80036" points="672.1797,400,681.1797,404,677.1797,400,681.1797,396,672.1797,400" style="stroke:#A80036;stroke-width:1.0;"/><!--MD5=[7c06fa7391ed80a08aca7f0ba6dc8b12]
@startuml
skinparam componentStyle uml2
actor User
actor Admin
database PostgresMovieData
database PostgresAuthData
database ElasticSearch
component AdminPanel
component LoadBalancer
component API
component Auth
component ETL

User -right-> LoadBalancer: Запрос на просмотр контента
LoadBalancer -right-> API: Запрос данных
API -right-> Auth: Запрос на аутентификацию/авторизацию пользователя
API -down-> ElasticSearch
Auth -right-> PostgresAuthData
PostgresMovieData -up-> ETL
ETL -down-> PostgresMovieData
ETL -up-> ElasticSearch
Admin -left-> AdminPanel: Редактирование данных
AdminPanel -left-> PostgresMovieData
@enduml

PlantUML version 1.2020.22(Sun Dec 06 09:36:27 UTC 2020)
(GPL source distribution)
Java Runtime: OpenJDK Runtime Environment
JVM: OpenJDK 64-Bit Server VM
Default Encoding: UTF-8
Language: en
Country: US
--></g></svg>